<?xml version="1.0" standalone="no"?>
<!DOCTYPE svg PUBLIC "-//W3C//DTD SVG 20010904//EN"
 "http://www.w3.org/TR/2001/REC-SVG-20010904/DTD/svg10.dtd">
<svg version="1.0" xmlns="http://www.w3.org/2000/svg"
 width="736.000000pt" height="736.000000pt" viewBox="0 0 736.000000 736.000000"
 preserveAspectRatio="xMidYMid meet">
<metadata>
Created by potrace 1.11, written by Peter Selinger 2001-2013
</metadata>
<g transform="translate(0.000000,736.000000) scale(0.100000,-0.100000)"
fill="#000000" stroke="none">
<path d="M3315 7214 c-109 -8 -247 -26 -375 -50 -1435 -264 -2570 -1399 -2834
-2834 -46 -252 -51 -310 -51 -655 0 -345 5 -403 51 -655 153 -834 610 -1593
1279 -2125 514 -409 1093 -651 1785 -747 129 -18 867 -18 1000 0 804 107 1496
438 2059 987 407 397 699 862 886 1415 72 212 132 488 166 765 16 130 16 590
0 720 -57 462 -163 829 -346 1204 -184 376 -409 687 -706 976 -559 545 -1247
876 -2044 985 -77 11 -766 22 -870 14z m970 -1803 c144 -26 185 -36 260 -64
279 -101 451 -277 530 -542 37 -121 46 -330 20 -456 -43 -218 -142 -361 -322
-472 -46 -27 -83 -52 -83 -53 0 -2 34 -19 76 -38 271 -126 423 -353 454 -681
44 -469 -229 -908 -655 -1053 -120 -41 -294 -70 -490 -82 -88 -5 -508 -10
-932 -10 l-773 0 0 1736 0 1735 928 -4 c617 -3 947 -8 987 -16z"/>
<path d="M3052 4448 l3 -383 474 -3 c526 -2 579 2 701 59 95 44 125 71 162
146 32 65 33 72 33 188 0 101 -3 127 -21 166 -45 96 -112 148 -244 185 -58 16
-119 18 -588 22 l-522 3 2 -383z"/>
<path d="M3055 3478 c-3 -13 -4 -223 -3 -468 l3 -445 485 -3 c398 -2 501 1
575 13 270 46 397 218 383 516 -4 89 -9 107 -42 173 -70 143 -189 204 -441
226 -60 5 -300 10 -532 10 l-423 0 -5 -22z"/>
</g>
</svg>
